<svg xmlns="http://www.w3.org/2000/svg" xmlns:xlink="http://www.w3.org/1999/xlink"><symbol id="SVG-arrow-product" viewBox="0 0 11 18"><path d="M10 1L2 9l8 8" stroke="#151C22" stroke-width="2"/></symbol><symbol id="SVG-arrow" viewBox="0 0 12 29"><path d="M6 0v27m0 0l5-6m-5 6l-5-6" stroke="#151C22" stroke-width="2"/></symbol><symbol id="SVG-cart" viewBox="0 0 20 18"><path d="M1 1h3.273l2.192 10.202c.075.35.28.666.58.89a1.72 1.72 0 001.057.337h7.953a1.72 1.72 0 001.057-.337c.3-.224.504-.54.579-.89L19 4.81H5.09m3.274 11.428c0 .42-.367.762-.819.762-.451 0-.818-.341-.818-.762 0-.42.367-.762.818-.762.452 0 .819.341.819.762zm9 0c0 .42-.367.762-.819.762-.451 0-.818-.341-.818-.762 0-.42.367-.762.819-.762.451 0 .818.341.818.762z" stroke="#151C22" stroke-width="2" stroke-linecap="round" stroke-linejoin="round"/></symbol><symbol id="SVG-DENIM" viewBox="0 0 199 74"><path d="M.268.126H20.65c5.275 0 9.23 1.462 11.868 4.386 2.637 2.924 3.985 7.253 4.042 12.986l.172 34.572c.057 7.281-1.204 12.757-3.784 16.426C30.368 72.166 26.097 74 20.134 74H.268V.126zm17.458 60.802c2.695 0 4.042-1.319 4.042-3.956V18.874c0-1.663-.143-2.895-.43-3.698-.23-.86-.688-1.433-1.376-1.72-.688-.287-1.749-.43-3.182-.43h-1.634v47.902h2.58zM42.68 74V.126h29.584v14.276H57.73v14.362h13.932v13.932H57.73v16.942h15.48V74H42.68zm35.441 0V.126h15.223l6.794 35.346V.126h14.276V74H99.966L92.57 37.02V74H78.121zm42.145 0V.126h14.276V74h-14.276zm20.172 0V.126h22.532l6.192 45.064L175.354.126h22.704V74h-13.502V20.766L176.042 74h-13.244l-9.03-53.234V74h-13.33z" fill="#151C22"/></symbol><symbol id="SVG-facebook" viewBox="0 0 11 20"><path d="M7 11.5h2.5l1-4H7v-2c0-1.03 0-2 2-2h1.5V.14C10.174.097 8.943 0 7.643 0 4.928 0 3 1.657 3 4.7v2.8H0v4h3V20h4v-8.5z" fill="#fff"/></symbol><symbol id="SVG-inst" viewBox="0 0 20 20"><path d="M10 0c2.717 0 3.056.01 4.122.06 1.065.05 1.79.217 2.428.465.66.254 1.216.598 1.772 1.153.509.5.902 1.105 1.153 1.772.247.637.415 1.363.465 2.428.047 1.066.06 1.405.06 4.122 0 2.717-.01 3.056-.06 4.122-.05 1.065-.218 1.79-.465 2.428a4.883 4.883 0 01-1.153 1.772c-.5.508-1.105.902-1.772 1.153-.637.247-1.363.415-2.428.465-1.066.047-1.405.06-4.122.06-2.717 0-3.056-.01-4.122-.06-1.065-.05-1.79-.218-2.428-.465a4.89 4.89 0 01-1.772-1.153A4.904 4.904 0 01.525 16.55C.277 15.913.11 15.187.06 14.122.013 13.056 0 12.717 0 10c0-2.717.01-3.056.06-4.122.05-1.066.217-1.79.465-2.428a4.88 4.88 0 011.153-1.772A4.897 4.897 0 013.45.525C4.088.277 4.812.11 5.878.06 6.944.013 7.283 0 10 0zm0 5a5 5 0 100 10 5 5 0 000-10zm6.5-.25a1.25 1.25 0 10-2.5 0 1.25 1.25 0 002.5 0zM10 7a3 3 0 110 6 3 3 0 010-6z" fill="#fff"/></symbol><symbol id="SVG-Nimes" viewBox="0 0 73 19"><path d="M15.392 18h-5.376l-4.32-7.848-1.008-2.16H4.64l.096 3.144V18H.464V2.16h5.352l4.32 7.848 1.032 2.16h.024l-.096-3.144V2.16h4.296V18zm7.491 0h-4.848V6h4.848v12zm-.936-13.248L20.46 2.856l-1.488 1.896h-3.384L18.155.528h4.608l2.568 4.224h-3.384zM41.48 5.76c1.2 0 2.152.36 2.856 1.08.704.72 1.056 1.736 1.056 3.048V18h-4.848v-6.912c0-.608-.104-1.04-.312-1.296-.192-.272-.488-.408-.888-.408-.512 0-.912.192-1.2.576-.272.384-.408.952-.408 1.704V18h-4.848v-6.912c0-.608-.104-1.04-.312-1.296-.192-.272-.488-.408-.888-.408-.496 0-.888.192-1.176.576-.288.384-.432.96-.432 1.728V18h-4.85V6h4.368l.12 2.472c.368-.88.896-1.552 1.584-2.016.704-.464 1.544-.696 2.52-.696.912 0 1.68.208 2.304.624.64.416 1.096 1.016 1.368 1.8.368-.784.896-1.384 1.584-1.8.688-.416 1.488-.624 2.4-.624zm18.396 5.952c0 .576-.04 1.04-.12 1.392H51.86c.096.672.312 1.144.648 1.416s.808.408 1.416.408c.976 0 1.576-.384 1.8-1.152l3.912 1.128c-.304 1.088-.968 1.92-1.992 2.496-1.008.56-2.248.84-3.72.84-2.176 0-3.84-.536-4.992-1.608C47.78 15.544 47.203 14 47.203 12c0-1.984.56-3.52 1.68-4.608C50.02 6.304 51.611 5.76 53.66 5.76c2 0 3.536.536 4.608 1.608 1.072 1.056 1.608 2.504 1.608 4.344zm-6.192-2.664c-.528 0-.944.152-1.248.456-.288.304-.48.8-.576 1.488h3.48c-.08-.656-.256-1.144-.528-1.464-.256-.32-.632-.48-1.128-.48zM66.98 18.24c-1.424 0-2.64-.152-3.648-.456-.992-.304-1.816-.8-2.472-1.488l2.28-2.64c.416.496.928.88 1.536 1.152.608.256 1.28.384 2.016.384.416 0 .752-.048 1.008-.144.256-.096.384-.24.384-.432 0-.176-.144-.328-.432-.456-.288-.144-.8-.296-1.536-.456-1.76-.336-3.032-.816-3.816-1.44-.768-.624-1.152-1.432-1.152-2.424 0-.688.224-1.344.672-1.968.464-.624 1.152-1.128 2.064-1.512.928-.4 2.072-.6 3.432-.6 2.608 0 4.488.664 5.64 1.992l-2.184 2.376c-.752-.88-1.84-1.32-3.264-1.32-.496 0-.872.064-1.128.192-.256.112-.384.264-.384.456 0 .16.136.304.408.432.288.112.76.224 1.416.336 1.808.272 3.112.72 3.912 1.344.816.608 1.224 1.456 1.224 2.544 0 1.2-.504 2.192-1.512 2.976-1.008.768-2.496 1.152-4.464 1.152z" fill="#151C22"/></symbol><symbol id="SVG-pin" viewBox="0 0 21 21"><path d="M11.37.094A10.003 10.003 0 006.002 19.17a7.757 7.757 0 01.163-2.293c.185-.839 1.296-5.463 1.296-5.463a3.739 3.739 0 01-.324-1.577c0-1.485.857-2.593 1.923-2.593a1.334 1.334 0 011.342 1.508c0 .9-.578 2.262-.88 3.54a1.544 1.544 0 001.575 1.923c1.898 0 3.17-2.43 3.17-5.3 0-2.2-1.457-3.849-4.143-3.849a4.746 4.746 0 00-4.93 4.794 2.96 2.96 0 00.648 1.97.48.48 0 01.162.554c-.046.184-.162.623-.208.784a.354.354 0 01-.51.254c-1.384-.554-2.036-2.077-2.036-3.816 0-2.847 2.384-6.255 7.154-6.255 3.796 0 6.32 2.777 6.32 5.747 0 3.91-2.177 6.848-5.394 6.848A2.862 2.862 0 018.876 14.7s-.578 2.316-.692 2.754a8.026 8.026 0 01-1.019 2.131c.923.28 1.882.42 2.846.416a9.99 9.99 0 009.996-10.003A10.002 10.002 0 0011.372.095h-.002z" fill="#fff"/></symbol><symbol id="SVG-search" viewBox="0 0 18 18"><path d="M17 17l-3.867-3.867m2.09-5.022A7.111 7.111 0 111 8.111a7.111 7.111 0 0114.222 0z" stroke="#151C22" stroke-width="2" stroke-linecap="round" stroke-linejoin="round"/></symbol><symbol id="SVG-twitter" viewBox="0 0 22 18"><path d="M21.162 2.656a8.383 8.383 0 01-2.402.658A4.196 4.196 0 0020.6 1c-.82.488-1.719.83-2.656 1.015a4.182 4.182 0 00-7.126 3.814 11.874 11.874 0 01-8.62-4.37 4.168 4.168 0 00-.566 2.103c0 1.45.738 2.73 1.86 3.48a4.168 4.168 0 01-1.894-.522v.052a4.185 4.185 0 003.355 4.1 4.209 4.209 0 01-1.89.073A4.185 4.185 0 006.97 13.65a8.393 8.393 0 01-6.19 1.732 11.83 11.83 0 006.41 1.88c7.692 0 11.9-6.373 11.9-11.9 0-.18-.006-.362-.014-.54a8.495 8.495 0 002.087-2.165v-.001z" fill="#fff"/></symbol></svg>